<?xml version="1.0" encoding="UTF-8" standalone="no"?>
<!DOCTYPE svg PUBLIC "-//W3C//DTD SVG 1.1//EN" "http://www.w3.org/Graphics/SVG/1.1/DTD/svg11.dtd">
<svg width="100%" height="100%" viewBox="0 0 700 652" version="1.1" xmlns="http://www.w3.org/2000/svg" xmlns:xlink="http://www.w3.org/1999/xlink" xml:space="preserve" xmlns:serif="http://www.serif.com/" style="fill-rule:evenodd;clip-rule:evenodd;stroke-linejoin:round;stroke-miterlimit:2;">
    <g>
        <g id="💀">
            <path d="M663.267,206.139C681.837,244.017 686.248,288.466 684.721,331.175C682.316,398.41 665.09,461.642 660.285,491.83C650.841,551.16 616.968,571.382 605.296,576.764C594.45,581.765 581.235,581.21 567.225,582.415C548.62,584.016 528.951,587.57 509.877,600.708C495.988,610.275 485.183,618.254 475.183,623.739C463.571,630.108 453.424,632.306 438.923,627.997C388.545,613.03 378.88,612.314 329.779,632.462C295.725,646.436 272.65,623.393 251.865,605.897C240.613,596.425 229.877,587.857 219.317,583.08C209.877,578.81 200.413,577.223 190.767,579.016C164.45,583.91 140.231,574.913 120.08,562.211C87.625,541.754 65.223,511.307 60.786,504.566C17.638,439.009 10.928,340.532 16.845,292.559C28.125,201.109 74.107,104.836 155.703,65.424C303.837,-6.126 440.304,8.765 520.23,48.563C605.389,90.968 638.523,155.667 663.267,206.139Z" style="fill:white;"/>
            <path d="M516.32,596.636C514.166,597.88 512.018,599.234 509.877,600.708C495.988,610.275 485.183,618.254 475.183,623.739C463.571,630.108 453.424,632.306 438.923,627.997C388.545,613.03 378.88,612.314 329.779,632.462C295.725,646.436 272.65,623.393 251.865,605.897C240.613,596.425 229.877,587.857 219.317,583.08C209.877,578.81 200.413,577.223 190.767,579.016C164.45,583.91 140.231,574.913 120.08,562.211C87.625,541.754 65.223,511.307 60.786,504.566C17.638,439.009 10.928,340.532 16.845,292.559C28.125,201.109 74.107,104.836 155.703,65.424C303.837,-6.126 440.304,8.765 520.23,48.563C544.227,60.513 564.093,74.232 580.804,88.905C553.368,76.383 520.986,68.593 473.933,71.832C415.346,75.865 348.537,102.752 309.498,191.767C280.105,258.791 302.899,287.669 325.248,307.287C379.999,355.349 366.538,435.888 342.086,487.21C327.752,517.298 287.454,541.655 311.325,574.46C335.197,607.265 364.3,558.809 413.726,587.489C427.499,595.481 441.675,604.638 462.288,604.393C480.337,604.178 499.943,600.602 516.32,596.636ZM377.707,480.994C386.873,475.246 397.729,495.167 407.067,507.775C410.675,512.646 414.444,524.577 411.536,533.806C408.667,542.907 400.076,545.649 397.032,545.867C383.641,546.829 377.749,533.591 377.749,533.591C377.749,533.591 370.785,544.061 357.771,543.022C347.808,542.227 340.538,534.916 339.024,527.471C337.723,521.078 338.943,511.785 349.46,501.957C356.772,495.123 368.964,486.476 377.707,480.994ZM448.736,449.642L629.776,421.845C653.103,518.113 576.083,549.093 523.001,528.778C490.132,516.198 456.373,483.033 448.736,449.642Z" style="fill:rgb(215,215,215);"/>
            <path d="M378.488,526.403C377.382,527.438 376.088,528.644 375.016,529.636C368.642,535.533 360.482,539.911 352.09,533.798C345.124,528.724 344.299,521.969 347.279,514.605C352.224,502.384 370.503,487.877 376.025,482.503C378.135,480.45 380.821,479.646 383.956,480.191C386.698,480.668 390.085,482.486 393.441,485.566C399.784,491.388 406.523,501.879 409.108,512.079C411.051,519.746 410.613,527.234 406.894,532.942C403.535,538.098 399.788,539.938 396.405,540.228C392.93,540.526 389.429,539.114 386.316,536.442C383.217,533.783 380.465,529.796 378.488,526.403ZM284.491,305.968C309.729,310.707 350.825,336.087 335.562,429.096C330.704,458.702 300.822,494.328 288.749,503.44C268.081,519.037 233.677,547.304 177.972,518.932C139.187,499.178 125.165,446.829 141.904,406.65C157.101,370.176 185.49,337.821 217.078,319.87C239.045,307.386 262.571,301.852 284.491,305.968ZM625.276,400.671C642.474,454.48 621.464,485.999 604.479,501.155C593.666,510.804 575.538,515.987 554.732,515.094C525.539,513.842 491.023,500.891 466.721,474.511C429.552,434.164 430.601,391.778 443.482,361.687C460.416,322.128 515.248,307.783 560.866,330.54C604.353,352.234 620.726,386.434 625.276,400.671Z" style="fill:rgb(18,18,18);"/>
        </g>
    </g>
</svg>
